<svg id="Capa_1" enable-background="new 0 0 512 512" height="512" viewBox="0 0 512 512" width="512" xmlns="http://www.w3.org/2000/svg"><g><path d="m101.24 407c0-8.284-6.716-15-15-15h-26.24c-33.084 0-60 26.916-60 60s26.916 60 60 60h96.47c8.284 0 15-6.716 15-15z" fill="#61729b"/><path d="m452 392h-26.24c-8.284 0-15 6.716-15 15l-70.229 90c0 8.284 6.716 15 15 15h96.469c33.084 0 60-26.916 60-60s-26.916-60-60-60z" fill="#47568c"/><g><path d="m256 152c-107.52 0-195 87.48-195 195 0 65.45 32.58 126.2 87.16 162.49 2.46 1.64 5.35 2.51 8.31 2.51h81.99l17.54-9.14 1.33-.69 16.18 9.83h82.02c2.96 0 5.85-.87 8.31-2.51 54.58-36.29 87.16-97.04 87.16-162.49 0-107.52-87.48-195-195-195z" fill="#fabe2c"/><path d="m451 347c0 65.45-32.58 126.2-87.16 162.49-2.46 1.64-5.35 2.51-8.31 2.51h-82.02l-16.18-9.83-1.33.69v-350.86c107.52 0 195 87.48 195 195z" fill="#ff9100"/><path d="m421 347c0 80.56-58.35 152.71-147.49 165h-35.05c-89.12-12.3-147.46-84.44-147.46-165 0-90.98 74.02-165 165-165s165 74.02 165 165z" fill="#fed843"/><path d="m421 347c0 80.56-58.35 152.71-147.49 165h-17.51v-330c90.98 0 165 74.02 165 165z" fill="#fabe2c"/></g><path d="m301 377c0 19.55-12.54 36.23-30 42.42v17.58c0 8.28-6.72 15-15 15s-15-6.72-15-15v-17.58c-17.46-6.19-30-22.87-30-42.42 0-8.28 6.72-15 15-15s15 6.72 15 15c0 8.27 6.73 15 15 15s15-6.73 15-15-6.73-15-15-15c-24.81 0-45-20.19-45-45 0-19.55 12.54-36.23 30-42.42v-17.58c0-8.28 6.72-15 15-15s15 6.72 15 15v17.58c17.46 6.19 30 22.87 30 42.42 0 8.28-6.72 15-15 15s-15-6.72-15-15c0-8.27-6.73-15-15-15s-15 6.73-15 15 6.73 15 15 15c24.81 0 45 20.19 45 45z" fill="#fabe2c"/><path d="m301 377c0 19.55-12.54 36.23-30 42.42v17.58c0 8.28-6.72 15-15 15v-60c8.27 0 15-6.73 15-15s-6.73-15-15-15v-30c24.81 0 45 20.19 45 45z" fill="#ff9100"/><path d="m256 302v-60c8.28 0 15 6.72 15 15v17.58c17.46 6.19 30 22.87 30 42.42 0 8.28-6.72 15-15 15s-15-6.72-15-15c0-8.27-6.73-15-15-15z" fill="#ff9100"/><g><path d="m271 45v60c0 8.28-6.72 15-15 15s-15-6.72-15-15v-60c0-8.28 6.72-15 15-15s15 6.72 15 15z" fill="#dfe7f4"/></g><path d="m271 45v60c0 8.28-6.72 15-15 15v-90c8.28 0 15 6.72 15 15z" fill="#c7cfe1"/><g><g><g><path d="m316 90c-8.284 0-15-6.716-15-15v-60c0-8.284 6.716-15 15-15s15 6.716 15 15v60c0 8.284-6.716 15-15 15z" fill="#c7cfe1"/></g></g></g><g><path d="m196 90c-8.284 0-15-6.716-15-15v-60c0-8.284 6.716-15 15-15s15 6.716 15 15v60c0 8.284-6.716 15-15 15z" fill="#dfe7f4"/></g></g></svg>